<mxfile host="app.diagrams.net" modified="2022-08-19T21:46:12.976Z" agent="5.0 (Windows NT 10.0; Win64; x64) AppleWebKit/537.36 (KHTML, like Gecko) Chrome/103.0.5060.134 Safari/537.36 OPR/89.0.4447.98" etag="WjQlFZXLty1D-k0sglyU" version="20.2.4" type="github">
  <diagram id="OU-aZMMqyZK8E2Q_70T6" name="Page-1">
    <mxGraphModel dx="1155" dy="1742" grid="1" gridSize="10" guides="1" tooltips="1" connect="1" arrows="1" fold="1" page="1" pageScale="1" pageWidth="850" pageHeight="1100" math="0" shadow="0">
      <root>
        <mxCell id="0" />
        <mxCell id="1" parent="0" />
        <mxCell id="4kpTrjFL7K2pbga_n4tD-17" value="" style="rounded=0;whiteSpace=wrap;html=1;" parent="1" vertex="1">
          <mxGeometry x="120" y="-40" width="520" height="40" as="geometry" />
        </mxCell>
        <mxCell id="4kpTrjFL7K2pbga_n4tD-18" value="USER" style="rounded=0;whiteSpace=wrap;html=1;" parent="1" vertex="1">
          <mxGeometry x="120" y="-40" width="120" height="40" as="geometry" />
        </mxCell>
        <mxCell id="4kpTrjFL7K2pbga_n4tD-19" value="username" style="rounded=0;whiteSpace=wrap;html=1;" parent="1" vertex="1">
          <mxGeometry x="240" y="-40" width="80" height="40" as="geometry" />
        </mxCell>
        <mxCell id="4kpTrjFL7K2pbga_n4tD-20" value="email" style="rounded=0;whiteSpace=wrap;html=1;" parent="1" vertex="1">
          <mxGeometry x="320" y="-40" width="80" height="40" as="geometry" />
        </mxCell>
        <mxCell id="4kpTrjFL7K2pbga_n4tD-21" value="password" style="rounded=0;whiteSpace=wrap;html=1;" parent="1" vertex="1">
          <mxGeometry x="400" y="-40" width="80" height="40" as="geometry" />
        </mxCell>
        <mxCell id="4kpTrjFL7K2pbga_n4tD-22" value="" style="rounded=0;whiteSpace=wrap;html=1;" parent="1" vertex="1">
          <mxGeometry x="120" y="80" width="280" height="40" as="geometry" />
        </mxCell>
        <mxCell id="4kpTrjFL7K2pbga_n4tD-23" value="ORGANIZATION" style="rounded=0;whiteSpace=wrap;html=1;" parent="1" vertex="1">
          <mxGeometry x="120" y="80" width="120" height="40" as="geometry" />
        </mxCell>
        <mxCell id="4kpTrjFL7K2pbga_n4tD-24" value="orgID" style="rounded=0;whiteSpace=wrap;html=1;" parent="1" vertex="1">
          <mxGeometry x="240" y="80" width="80" height="40" as="geometry" />
        </mxCell>
        <mxCell id="4kpTrjFL7K2pbga_n4tD-25" value="orgName" style="rounded=0;whiteSpace=wrap;html=1;" parent="1" vertex="1">
          <mxGeometry x="320" y="80" width="80" height="40" as="geometry" />
        </mxCell>
        <mxCell id="4kpTrjFL7K2pbga_n4tD-27" value="" style="rounded=0;whiteSpace=wrap;html=1;" parent="1" vertex="1">
          <mxGeometry x="120" y="200" width="280" height="40" as="geometry" />
        </mxCell>
        <mxCell id="4kpTrjFL7K2pbga_n4tD-28" value="ROUTE" style="rounded=0;whiteSpace=wrap;html=1;" parent="1" vertex="1">
          <mxGeometry x="120" y="200" width="120" height="40" as="geometry" />
        </mxCell>
        <mxCell id="4kpTrjFL7K2pbga_n4tD-29" value="routeID" style="rounded=0;whiteSpace=wrap;html=1;" parent="1" vertex="1">
          <mxGeometry x="240" y="200" width="80" height="40" as="geometry" />
        </mxCell>
        <mxCell id="4kpTrjFL7K2pbga_n4tD-30" value="routeName" style="rounded=0;whiteSpace=wrap;html=1;" parent="1" vertex="1">
          <mxGeometry x="320" y="200" width="80" height="40" as="geometry" />
        </mxCell>
        <mxCell id="4kpTrjFL7K2pbga_n4tD-36" value="" style="rounded=0;whiteSpace=wrap;html=1;" parent="1" vertex="1">
          <mxGeometry x="120" y="440" width="350" height="40" as="geometry" />
        </mxCell>
        <mxCell id="4kpTrjFL7K2pbga_n4tD-37" value="FOREST_MINISTRY" style="rounded=0;whiteSpace=wrap;html=1;" parent="1" vertex="1">
          <mxGeometry x="120" y="440" width="120" height="40" as="geometry" />
        </mxCell>
        <mxCell id="4kpTrjFL7K2pbga_n4tD-38" value="ministryName" style="rounded=0;whiteSpace=wrap;html=1;" parent="1" vertex="1">
          <mxGeometry x="320" y="440" width="80" height="40" as="geometry" />
        </mxCell>
        <mxCell id="4kpTrjFL7K2pbga_n4tD-41" value="" style="rounded=0;whiteSpace=wrap;html=1;" parent="1" vertex="1">
          <mxGeometry x="120" y="320" width="280" height="40" as="geometry" />
        </mxCell>
        <mxCell id="4kpTrjFL7K2pbga_n4tD-42" value="STATION" style="rounded=0;whiteSpace=wrap;html=1;" parent="1" vertex="1">
          <mxGeometry x="120" y="320" width="120" height="40" as="geometry" />
        </mxCell>
        <mxCell id="4kpTrjFL7K2pbga_n4tD-43" value="stationID" style="rounded=0;whiteSpace=wrap;html=1;" parent="1" vertex="1">
          <mxGeometry x="240" y="320" width="80" height="40" as="geometry" />
        </mxCell>
        <mxCell id="4kpTrjFL7K2pbga_n4tD-44" value="stationNo" style="rounded=0;whiteSpace=wrap;html=1;" parent="1" vertex="1">
          <mxGeometry x="320" y="320" width="80" height="40" as="geometry" />
        </mxCell>
        <mxCell id="4kpTrjFL7K2pbga_n4tD-49" value="" style="endArrow=none;html=1;rounded=0;" parent="1" edge="1">
          <mxGeometry width="50" height="50" relative="1" as="geometry">
            <mxPoint x="248.75" y="-10" as="sourcePoint" />
            <mxPoint x="311.25" y="-10" as="targetPoint" />
          </mxGeometry>
        </mxCell>
        <mxCell id="4kpTrjFL7K2pbga_n4tD-50" value="" style="endArrow=none;html=1;rounded=0;" parent="1" edge="1">
          <mxGeometry width="50" height="50" relative="1" as="geometry">
            <mxPoint x="248.75" y="110" as="sourcePoint" />
            <mxPoint x="311.25" y="110" as="targetPoint" />
          </mxGeometry>
        </mxCell>
        <mxCell id="4kpTrjFL7K2pbga_n4tD-51" value="" style="endArrow=none;html=1;rounded=0;" parent="1" edge="1">
          <mxGeometry width="50" height="50" relative="1" as="geometry">
            <mxPoint x="248.75" y="230" as="sourcePoint" />
            <mxPoint x="311.25" y="230" as="targetPoint" />
          </mxGeometry>
        </mxCell>
        <mxCell id="4kpTrjFL7K2pbga_n4tD-53" value="" style="endArrow=none;html=1;rounded=0;" parent="1" edge="1">
          <mxGeometry width="50" height="50" relative="1" as="geometry">
            <mxPoint x="330" y="470" as="sourcePoint" />
            <mxPoint x="330" y="470" as="targetPoint" />
            <Array as="points">
              <mxPoint x="380" y="470" />
            </Array>
          </mxGeometry>
        </mxCell>
        <mxCell id="4kpTrjFL7K2pbga_n4tD-54" value="" style="endArrow=none;html=1;rounded=0;" parent="1" edge="1">
          <mxGeometry width="50" height="50" relative="1" as="geometry">
            <mxPoint x="248.75" y="350" as="sourcePoint" />
            <mxPoint x="311.25" y="350" as="targetPoint" />
          </mxGeometry>
        </mxCell>
        <mxCell id="XAyySVj-0V9a2V9ARLvr-15" value="locationID" style="rounded=0;whiteSpace=wrap;html=1;" parent="1" vertex="1">
          <mxGeometry x="400" y="440" width="80" height="40" as="geometry" />
        </mxCell>
        <mxCell id="XAyySVj-0V9a2V9ARLvr-16" value="" style="endArrow=none;html=1;rounded=0;dashed=1;" parent="1" edge="1">
          <mxGeometry width="50" height="50" relative="1" as="geometry">
            <mxPoint x="408.75" y="470" as="sourcePoint" />
            <mxPoint x="471.25" y="470" as="targetPoint" />
          </mxGeometry>
        </mxCell>
        <mxCell id="XAyySVj-0V9a2V9ARLvr-18" value="" style="rounded=0;whiteSpace=wrap;html=1;" parent="1" vertex="1">
          <mxGeometry x="540" y="340" width="280" height="40" as="geometry" />
        </mxCell>
        <mxCell id="XAyySVj-0V9a2V9ARLvr-19" value="ORG_MINISTRY" style="rounded=0;whiteSpace=wrap;html=1;" parent="1" vertex="1">
          <mxGeometry x="540" y="340" width="120" height="40" as="geometry" />
        </mxCell>
        <mxCell id="XAyySVj-0V9a2V9ARLvr-25" value="ministryName" style="rounded=0;whiteSpace=wrap;html=1;" parent="1" vertex="1">
          <mxGeometry x="660" y="340" width="80" height="40" as="geometry" />
        </mxCell>
        <mxCell id="XAyySVj-0V9a2V9ARLvr-23" value="" style="endArrow=none;html=1;rounded=0;" parent="1" edge="1">
          <mxGeometry width="50" height="50" relative="1" as="geometry">
            <mxPoint x="668.75" y="370" as="sourcePoint" />
            <mxPoint x="731.25" y="370" as="targetPoint" />
          </mxGeometry>
        </mxCell>
        <mxCell id="XAyySVj-0V9a2V9ARLvr-26" value="orgID" style="rounded=0;whiteSpace=wrap;html=1;" parent="1" vertex="1">
          <mxGeometry x="740" y="340" width="80" height="40" as="geometry" />
        </mxCell>
        <mxCell id="XAyySVj-0V9a2V9ARLvr-27" value="" style="endArrow=none;html=1;rounded=0;" parent="1" edge="1">
          <mxGeometry width="50" height="50" relative="1" as="geometry">
            <mxPoint x="748.75" y="370" as="sourcePoint" />
            <mxPoint x="811.25" y="370" as="targetPoint" />
          </mxGeometry>
        </mxCell>
        <mxCell id="LwJI6-3wAE6_hfsCvq4X-1" value="ministryName" style="rounded=0;whiteSpace=wrap;html=1;" parent="1" vertex="1">
          <mxGeometry x="480" y="-40" width="80" height="40" as="geometry" />
        </mxCell>
        <mxCell id="LwJI6-3wAE6_hfsCvq4X-2" value="" style="endArrow=none;html=1;rounded=0;dashed=1;" parent="1" edge="1">
          <mxGeometry width="50" height="50" relative="1" as="geometry">
            <mxPoint x="488.75" y="-10" as="sourcePoint" />
            <mxPoint x="551.25" y="-10" as="targetPoint" />
          </mxGeometry>
        </mxCell>
        <mxCell id="LwJI6-3wAE6_hfsCvq4X-5" value="" style="rounded=0;whiteSpace=wrap;html=1;" parent="1" vertex="1">
          <mxGeometry x="120" y="-320" width="280" height="40" as="geometry" />
        </mxCell>
        <mxCell id="LwJI6-3wAE6_hfsCvq4X-6" value="ORG_USER" style="rounded=0;whiteSpace=wrap;html=1;" parent="1" vertex="1">
          <mxGeometry x="120" y="-320" width="120" height="40" as="geometry" />
        </mxCell>
        <mxCell id="LwJI6-3wAE6_hfsCvq4X-7" value="orgID" style="rounded=0;whiteSpace=wrap;html=1;" parent="1" vertex="1">
          <mxGeometry x="240" y="-320" width="80" height="40" as="geometry" />
        </mxCell>
        <mxCell id="LwJI6-3wAE6_hfsCvq4X-8" value="username" style="rounded=0;whiteSpace=wrap;html=1;" parent="1" vertex="1">
          <mxGeometry x="320" y="-320" width="80" height="40" as="geometry" />
        </mxCell>
        <mxCell id="LwJI6-3wAE6_hfsCvq4X-10" value="" style="endArrow=none;html=1;rounded=0;" parent="1" edge="1">
          <mxGeometry width="50" height="50" relative="1" as="geometry">
            <mxPoint x="248.75" y="-290" as="sourcePoint" />
            <mxPoint x="311.25" y="-290" as="targetPoint" />
          </mxGeometry>
        </mxCell>
        <mxCell id="LwJI6-3wAE6_hfsCvq4X-14" value="" style="endArrow=none;html=1;rounded=0;" parent="1" edge="1">
          <mxGeometry width="50" height="50" relative="1" as="geometry">
            <mxPoint x="328.75" y="-290" as="sourcePoint" />
            <mxPoint x="391.25" y="-290" as="targetPoint" />
          </mxGeometry>
        </mxCell>
        <mxCell id="Ll7ZZZQxQ9TElTHfW3kW-1" value="orgID" style="rounded=0;whiteSpace=wrap;html=1;" vertex="1" parent="1">
          <mxGeometry x="560" y="-40" width="80" height="40" as="geometry" />
        </mxCell>
        <mxCell id="Ll7ZZZQxQ9TElTHfW3kW-2" value="" style="endArrow=none;html=1;rounded=0;dashed=1;" edge="1" parent="1">
          <mxGeometry width="50" height="50" relative="1" as="geometry">
            <mxPoint x="568.75" y="-10" as="sourcePoint" />
            <mxPoint x="631.25" y="-10" as="targetPoint" />
          </mxGeometry>
        </mxCell>
        <mxCell id="Ll7ZZZQxQ9TElTHfW3kW-4" value="lat" style="rounded=0;whiteSpace=wrap;html=1;" vertex="1" parent="1">
          <mxGeometry x="120" y="1360" width="80" height="40" as="geometry" />
        </mxCell>
        <mxCell id="Ll7ZZZQxQ9TElTHfW3kW-5" value="lon" style="rounded=0;whiteSpace=wrap;html=1;" vertex="1" parent="1">
          <mxGeometry x="200" y="1360" width="80" height="40" as="geometry" />
        </mxCell>
        <mxCell id="Ll7ZZZQxQ9TElTHfW3kW-6" value="date" style="rounded=0;whiteSpace=wrap;html=1;" vertex="1" parent="1">
          <mxGeometry x="280" y="1360" width="80" height="40" as="geometry" />
        </mxCell>
        <mxCell id="Ll7ZZZQxQ9TElTHfW3kW-7" value="location" style="rounded=0;whiteSpace=wrap;html=1;" vertex="1" parent="1">
          <mxGeometry x="360" y="1360" width="80" height="40" as="geometry" />
        </mxCell>
        <mxCell id="Ll7ZZZQxQ9TElTHfW3kW-8" value="mean" style="rounded=0;whiteSpace=wrap;html=1;" vertex="1" parent="1">
          <mxGeometry x="440" y="1360" width="80" height="40" as="geometry" />
        </mxCell>
        <mxCell id="Ll7ZZZQxQ9TElTHfW3kW-9" value="season" style="rounded=0;whiteSpace=wrap;html=1;" vertex="1" parent="1">
          <mxGeometry x="120" y="1440" width="80" height="40" as="geometry" />
        </mxCell>
        <mxCell id="Ll7ZZZQxQ9TElTHfW3kW-10" value="location" style="rounded=0;whiteSpace=wrap;html=1;" vertex="1" parent="1">
          <mxGeometry x="200" y="1440" width="80" height="40" as="geometry" />
        </mxCell>
        <mxCell id="Ll7ZZZQxQ9TElTHfW3kW-11" value="pm25" style="rounded=0;whiteSpace=wrap;html=1;" vertex="1" parent="1">
          <mxGeometry x="280" y="1440" width="80" height="40" as="geometry" />
        </mxCell>
        <mxCell id="Ll7ZZZQxQ9TElTHfW3kW-12" value="ministryName" style="rounded=0;whiteSpace=wrap;html=1;" vertex="1" parent="1">
          <mxGeometry x="360" y="1440" width="80" height="40" as="geometry" />
        </mxCell>
        <mxCell id="Ll7ZZZQxQ9TElTHfW3kW-13" value="" style="endArrow=none;html=1;rounded=0;dashed=1;" edge="1" parent="1">
          <mxGeometry width="50" height="50" relative="1" as="geometry">
            <mxPoint x="368.75" y="1470" as="sourcePoint" />
            <mxPoint x="431.25" y="1470" as="targetPoint" />
          </mxGeometry>
        </mxCell>
        <mxCell id="Ll7ZZZQxQ9TElTHfW3kW-14" value="orgID" style="rounded=0;whiteSpace=wrap;html=1;" vertex="1" parent="1">
          <mxGeometry x="440" y="1440" width="80" height="40" as="geometry" />
        </mxCell>
        <mxCell id="Ll7ZZZQxQ9TElTHfW3kW-15" value="" style="endArrow=none;html=1;rounded=0;dashed=1;" edge="1" parent="1">
          <mxGeometry width="50" height="50" relative="1" as="geometry">
            <mxPoint x="448.75" y="1470" as="sourcePoint" />
            <mxPoint x="511.25" y="1470" as="targetPoint" />
          </mxGeometry>
        </mxCell>
        <mxCell id="Ll7ZZZQxQ9TElTHfW3kW-16" value="" style="rounded=0;whiteSpace=wrap;html=1;" vertex="1" parent="1">
          <mxGeometry x="120" y="560" width="360" height="40" as="geometry" />
        </mxCell>
        <mxCell id="Ll7ZZZQxQ9TElTHfW3kW-17" value="CITY_CORPORATION" style="rounded=0;whiteSpace=wrap;html=1;" vertex="1" parent="1">
          <mxGeometry x="120" y="560" width="120" height="40" as="geometry" />
        </mxCell>
        <mxCell id="Ll7ZZZQxQ9TElTHfW3kW-18" value="corpID" style="rounded=0;whiteSpace=wrap;html=1;" vertex="1" parent="1">
          <mxGeometry x="240" y="560" width="80" height="40" as="geometry" />
        </mxCell>
        <mxCell id="Ll7ZZZQxQ9TElTHfW3kW-19" value="" style="endArrow=none;html=1;rounded=0;" edge="1" parent="1">
          <mxGeometry width="50" height="50" relative="1" as="geometry">
            <mxPoint x="248.75" y="590" as="sourcePoint" />
            <mxPoint x="311.25" y="590" as="targetPoint" />
          </mxGeometry>
        </mxCell>
        <mxCell id="Ll7ZZZQxQ9TElTHfW3kW-20" value="minID" style="rounded=0;whiteSpace=wrap;html=1;" vertex="1" parent="1">
          <mxGeometry x="320" y="560" width="80" height="40" as="geometry" />
        </mxCell>
        <mxCell id="Ll7ZZZQxQ9TElTHfW3kW-22" value="locID" style="rounded=0;whiteSpace=wrap;html=1;" vertex="1" parent="1">
          <mxGeometry x="400" y="560" width="80" height="40" as="geometry" />
        </mxCell>
        <mxCell id="Ll7ZZZQxQ9TElTHfW3kW-23" value="" style="endArrow=none;html=1;rounded=0;dashed=1;" edge="1" parent="1">
          <mxGeometry width="50" height="50" relative="1" as="geometry">
            <mxPoint x="408.75" y="590" as="sourcePoint" />
            <mxPoint x="471.25" y="590" as="targetPoint" />
          </mxGeometry>
        </mxCell>
        <mxCell id="Ll7ZZZQxQ9TElTHfW3kW-24" value="" style="endArrow=none;html=1;rounded=0;dashed=1;" edge="1" parent="1">
          <mxGeometry width="50" height="50" relative="1" as="geometry">
            <mxPoint x="328.75" y="590" as="sourcePoint" />
            <mxPoint x="391.25" y="590" as="targetPoint" />
          </mxGeometry>
        </mxCell>
        <mxCell id="Ll7ZZZQxQ9TElTHfW3kW-26" value="minID" style="rounded=0;whiteSpace=wrap;html=1;" vertex="1" parent="1">
          <mxGeometry x="240" y="440" width="80" height="40" as="geometry" />
        </mxCell>
        <mxCell id="Ll7ZZZQxQ9TElTHfW3kW-27" value="" style="rounded=0;whiteSpace=wrap;html=1;" vertex="1" parent="1">
          <mxGeometry x="120" y="680" width="360" height="40" as="geometry" />
        </mxCell>
        <mxCell id="Ll7ZZZQxQ9TElTHfW3kW-28" value="WEATHER_INFO" style="rounded=0;whiteSpace=wrap;html=1;" vertex="1" parent="1">
          <mxGeometry x="120" y="680" width="120" height="40" as="geometry" />
        </mxCell>
        <mxCell id="Ll7ZZZQxQ9TElTHfW3kW-29" value="corpID" style="rounded=0;whiteSpace=wrap;html=1;" vertex="1" parent="1">
          <mxGeometry x="240" y="680" width="80" height="40" as="geometry" />
        </mxCell>
        <mxCell id="Ll7ZZZQxQ9TElTHfW3kW-30" value="" style="endArrow=none;html=1;rounded=0;" edge="1" parent="1">
          <mxGeometry width="50" height="50" relative="1" as="geometry">
            <mxPoint x="248.75" y="710" as="sourcePoint" />
            <mxPoint x="311.25" y="710" as="targetPoint" />
          </mxGeometry>
        </mxCell>
        <mxCell id="Ll7ZZZQxQ9TElTHfW3kW-31" value="minID" style="rounded=0;whiteSpace=wrap;html=1;" vertex="1" parent="1">
          <mxGeometry x="320" y="680" width="80" height="40" as="geometry" />
        </mxCell>
        <mxCell id="Ll7ZZZQxQ9TElTHfW3kW-32" value="locID" style="rounded=0;whiteSpace=wrap;html=1;" vertex="1" parent="1">
          <mxGeometry x="400" y="680" width="80" height="40" as="geometry" />
        </mxCell>
        <mxCell id="Ll7ZZZQxQ9TElTHfW3kW-33" value="" style="endArrow=none;html=1;rounded=0;dashed=1;" edge="1" parent="1">
          <mxGeometry width="50" height="50" relative="1" as="geometry">
            <mxPoint x="408.75" y="710" as="sourcePoint" />
            <mxPoint x="471.25" y="710" as="targetPoint" />
          </mxGeometry>
        </mxCell>
        <mxCell id="Ll7ZZZQxQ9TElTHfW3kW-34" value="" style="endArrow=none;html=1;rounded=0;dashed=1;" edge="1" parent="1">
          <mxGeometry width="50" height="50" relative="1" as="geometry">
            <mxPoint x="328.75" y="710" as="sourcePoint" />
            <mxPoint x="391.25" y="710" as="targetPoint" />
          </mxGeometry>
        </mxCell>
        <mxCell id="Ll7ZZZQxQ9TElTHfW3kW-35" value="" style="rounded=0;whiteSpace=wrap;html=1;" vertex="1" parent="1">
          <mxGeometry x="120" y="800" width="520" height="40" as="geometry" />
        </mxCell>
        <mxCell id="Ll7ZZZQxQ9TElTHfW3kW-36" value="LOCATION" style="rounded=0;whiteSpace=wrap;html=1;" vertex="1" parent="1">
          <mxGeometry x="120" y="800" width="120" height="40" as="geometry" />
        </mxCell>
        <mxCell id="Ll7ZZZQxQ9TElTHfW3kW-37" value="locID" style="rounded=0;whiteSpace=wrap;html=1;" vertex="1" parent="1">
          <mxGeometry x="240" y="800" width="80" height="40" as="geometry" />
        </mxCell>
        <mxCell id="Ll7ZZZQxQ9TElTHfW3kW-38" value="" style="endArrow=none;html=1;rounded=0;" edge="1" parent="1">
          <mxGeometry width="50" height="50" relative="1" as="geometry">
            <mxPoint x="248.75" y="830" as="sourcePoint" />
            <mxPoint x="311.25" y="830" as="targetPoint" />
          </mxGeometry>
        </mxCell>
        <mxCell id="Ll7ZZZQxQ9TElTHfW3kW-39" value="latitude" style="rounded=0;whiteSpace=wrap;html=1;" vertex="1" parent="1">
          <mxGeometry x="320" y="800" width="80" height="40" as="geometry" />
        </mxCell>
        <mxCell id="Ll7ZZZQxQ9TElTHfW3kW-40" value="country" style="rounded=0;whiteSpace=wrap;html=1;" vertex="1" parent="1">
          <mxGeometry x="560" y="800" width="80" height="40" as="geometry" />
        </mxCell>
        <mxCell id="Ll7ZZZQxQ9TElTHfW3kW-43" value="longitude" style="rounded=0;whiteSpace=wrap;html=1;" vertex="1" parent="1">
          <mxGeometry x="400" y="800" width="80" height="40" as="geometry" />
        </mxCell>
        <mxCell id="Ll7ZZZQxQ9TElTHfW3kW-44" value="division" style="rounded=0;whiteSpace=wrap;html=1;" vertex="1" parent="1">
          <mxGeometry x="480" y="800" width="80" height="40" as="geometry" />
        </mxCell>
      </root>
    </mxGraphModel>
  </diagram>
</mxfile>
